<svg width="703" height="452" viewBox="0 0 703 452" fill="none" xmlns="http://www.w3.org/2000/svg">
<path d="M99.498 75.8637C97.1425 77.2523 87.2834 82.4909 82.96 85.2C87.2921 81 108.01 70.7395 99.498 75.8637ZM457.664 24.2929C454.191 25.3185 450.511 26.3893 447.051 27.4162C457.336 25.4662 471.062 22.403 480.652 20.7375C482.229 20.4644 478.337 22.1405 482.05 21.4224C484.335 20.9809 484.829 20.428 486.125 19.7859C486.962 19.383 488.116 18.9434 490.157 18.4819C496.169 17.1025 523.94 12.448 533.732 10.6335C556.909 6.88691 571.888 1.30497 607.875 0.753663C608.663 0.797443 609.59 0.840635 611.264 1.00628C612.2 1.10635 613.106 1.19587 614.958 1.51305C615.885 1.68094 616.715 1.82652 618.458 2.26449C619.274 2.47334 620.189 2.72959 621.245 3.07328C621.777 3.24668 622.326 3.43553 622.954 3.66877C623.765 3.97055 624.652 4.32648 625.633 4.76672C627.592 5.65352 629.941 6.84725 632.77 8.82566C635.804 10.9364 641.484 15.6031 645.61 23.1344C649.878 30.2867 652.058 42.3232 650.273 50.9459C648.318 60.5745 646.053 63.3884 644.147 66.698C642.176 69.7618 640.298 71.8981 638.763 73.4869C637.708 74.5732 636.754 75.4487 635.886 76.1962C634.211 77.6445 632.539 78.8234 631.861 79.2837C628.176 81.7316 626.906 82.241 625.475 82.9835C620.823 85.2111 618.964 85.8165 616.599 86.7379C612.278 88.3568 608.549 89.6224 604.84 90.8632C597.432 93.3289 590.336 95.5495 583.164 97.7269C619.508 85.0816 582.232 96.2532 572.359 99.6876C570.497 100.344 570.917 102.039 546.55 109.63C543.313 110.637 539.277 111.856 534.989 113.107C512.004 119.811 532.166 110.341 494.509 123.531C524.519 116.629 495.627 125.331 472.672 132.425C468.671 133.663 436.684 143.095 422.571 147.511C417.767 149.015 410.722 152.373 404.347 154.355C399.936 155.725 396.434 156.139 389.895 158.174C359.443 167.646 329.483 176.89 298.948 186.108C315.86 177.787 284.604 189.224 283.119 189.543C275.62 191.024 308.411 180.633 295.263 184.177C277.094 189.894 259.092 195.585 240.955 201.372C254.507 197.466 228.189 207.56 218.143 210.373C217.025 210.686 216.11 210.909 215.458 211.017C218.955 212.486 132.859 235.289 121.676 240.976C119.602 242.147 134.903 236.958 98.9429 251.013C95.3291 252.561 96.3528 251.242 94.5358 252.164C93.9749 252.453 92.2965 253.959 89.7655 255.752C87.3979 257.446 84.4163 259.335 81.1794 260.477C79.9641 260.905 82.6246 258.706 81.8202 258.728C81.4288 258.739 80.027 259.322 77.2097 261.056C75.8313 261.912 74.0773 263.092 72.4294 264.418C71.6181 265.069 70.8293 265.774 70.3629 266.263C70.1319 266.502 69.9844 266.687 70.0287 266.663C70.0815 266.614 70.297 266.452 71.018 265.379C70.5874 266.347 70.5831 266.555 70.6073 266.753C70.6418 266.929 70.7345 267.006 70.8787 266.997C71.0306 266.973 71.2214 266.901 71.6988 266.344C71.9418 266.052 72.2588 265.642 72.735 264.86C73.2067 264.048 73.8647 262.989 74.8434 260.339C79.1355 249.662 76.3273 233.867 68.7143 225.529C66.6188 222.889 62.2132 219.086 58.9029 217.262C55.5232 215.314 53.2567 214.57 51.8224 214.098C48.9919 213.243 48.6407 213.314 48.5821 213.27C48.6668 213.276 50.5132 213.456 52.4656 213.574C63.7527 214.68 95.2732 209.886 102.786 209.01C99.7335 209.17 96.6707 209.318 93.5926 209.451C108.612 208.001 111.221 206.576 114.679 206.035C123.89 204.544 135.661 202.797 146.329 200.975C151.354 200.121 156.239 199.232 160.464 198.363C175.622 195.229 175.264 193.686 193.11 190.627C188.814 191.161 184.585 191.677 180.306 192.197C192.522 189.779 204.759 187.307 216.999 184.8C189.143 192.819 223.124 183.619 225.387 183.074C228.984 182.229 223.962 184.179 230 182.78C230.624 182.628 229.554 182.034 238.849 179.945C258.296 175.561 255.42 177.211 263.602 175.421C264.351 175.25 261.568 175.12 275.655 171.855C320.415 161.414 275.562 172.461 273.853 172.925C271.618 173.541 287.666 173.187 249.293 180.424C262.165 177.987 263.759 179.011 265.199 178.733C266.48 178.488 288.633 173.428 289.844 173.106C300.653 170.244 290.858 171.47 292.947 170.838C294.652 170.333 321.637 165.547 327.286 161.424C340.614 161.033 320.451 165.367 299.091 170.511C296.077 171.723 319.735 166.97 320.968 166.685C351.322 159.843 334.056 161.574 340.389 158.768C343.71 157.296 356.396 155.878 344.565 156.637C372.045 150.169 355.594 155.037 357.409 154.791C360.132 154.414 369.659 151.672 370.86 151.468C372.647 151.166 366.663 153.214 373.672 151.835C374.853 151.597 385.831 147.91 371.215 150.733C390.585 146.425 388.743 145.853 395.776 146.197C408.225 139.534 405.926 146.033 411.183 145.006C425.216 142.241 420.54 140.396 421.236 140.09C423.525 139.114 433.161 136.815 443.744 134.314C455.81 131.47 469.017 128.354 473.95 126.879C471.452 129.202 453.978 132.595 443.854 134.767C441.226 135.334 439.054 135.834 437.814 136.22C427.464 139.434 435.994 137.646 444.185 136.131C451.606 134.752 458.764 133.582 452.214 136.451C458.17 134.258 463.924 132.1 469.823 129.887C481.227 128.718 465.769 133.454 495.282 125.233C499.771 122.601 474.363 130.847 479.276 128.41C482.228 126.99 499.258 122.438 499.536 121.988C499.704 121.519 484.445 125.986 486.677 124.734C491.723 122.133 548.203 108.259 505.663 120.504C517.572 117.314 524.442 118.325 534.552 114.606C541.135 112.136 502.353 119.168 559.153 103.747C560.645 104.696 536.563 110.624 536.011 110.854C535.19 111.237 540.266 112.895 541.065 112.82C542.818 112.696 561.966 106.492 582.919 100.784C598.135 96.6971 613.27 93.9485 619.46 93.6147C616.766 93.3475 628.991 90.2781 649.003 89.8604C653.253 90.0024 657.221 89.5842 666.951 92.0677C671.649 93.7016 680.629 95.4852 690.618 108.055C695.298 114.179 697.848 122.064 698.501 127.206C699.225 132.478 698.908 135.56 698.83 137.116C697.482 152.347 691.53 160.275 688.421 164.927C685.013 169.612 682.782 171.823 681.792 172.993C680.881 174.023 682.4 172.936 683.992 171.621C685.577 170.325 687.233 168.753 686.144 170.145C680.625 177.12 672.517 183.567 664.722 188.593C644.989 200.576 634.002 201.534 625.994 204.705C612.168 209.28 614.281 209.46 613.485 209.736C607.512 211.605 612.098 209.484 608.42 210.664C602.856 212.519 565.55 223.845 563.721 224.505C563.211 224.7 568.938 223.929 562.683 226.111C562.33 226.234 561.937 226.368 561.498 226.512C560.133 226.952 560.598 225.57 536.705 233.274C507.877 242.538 557.283 228.723 545.602 233.553C526.396 237.387 527.592 238.91 522.499 240.278C520.7 240.759 507.291 243.125 493.234 247.374C503.284 244.147 513.336 240.913 523.393 237.663C513.365 240.363 494.115 246.4 485.845 248.517C481.822 249.547 484.768 247.356 476.078 249.952C474.263 250.5 467.793 255.634 490.159 247.594C492.286 248.118 481.274 250.616 476.328 252.398C475.592 252.665 473.113 255.319 466.387 256.104C464.768 256.286 479.975 246.201 437.923 262.637C436.57 263.166 441.587 262.392 440.269 262.925C439.372 263.288 428.277 266.27 427.09 266.719C425.875 267.184 431.4 266.324 429.96 266.899C422.577 269.851 411.785 269.988 427.506 265.589C422.169 266.784 416.837 267.979 411.502 269.177C417.726 269.635 403.454 272.194 396.252 274.394C350.029 288.534 381.471 280.715 373.715 283.785C361.251 288.73 369.978 282.2 351.301 288.953C349.605 289.582 372.896 284.239 327.975 296.796C334.492 294.762 341.133 292.702 347.695 290.674C343.275 289.768 323.918 297.971 322.391 298.473C306.901 303.453 314.348 300.567 298.182 306.209C296.139 306.922 293.797 307.749 291.031 308.736C288.715 309.559 283.543 310.624 278.773 312.406C264.144 317.884 285.303 311.109 298.53 307.336C303.252 305.983 307.062 304.962 307.436 305.088C307.667 305.137 304.003 306.335 298.737 308.008C284.185 312.577 256.936 321.253 255.686 321.556C248.101 323.078 278.31 313.805 272.29 314.608C269.595 314.727 199.331 339.184 188.37 345.309C186.533 346.093 184.776 346.815 183.122 347.475C171.497 352.138 165.65 353.238 166.874 355.775C161.285 355.113 158.729 358.992 156.912 359.977C148.29 364.648 143.303 367.653 139.532 370.034C135.208 372.807 132.679 374.989 131.346 377.403C131.131 377.777 130.782 378.213 130.292 378.872C132.386 374.947 135.663 366.289 133.62 355.572C131.611 344.852 125.259 337.696 121.231 334.384C115.949 330.083 113.282 329.263 111.645 328.459C109.972 327.745 109.719 327.61 109.548 327.421C109.387 327.245 109.356 327.073 108.806 326.737C107.813 326.029 104.151 324.962 103.997 324.866C102.258 325.078 132.948 323.999 145.441 323.377C148.04 323.302 149.881 323.228 150.428 323.284C151.665 323.399 148.716 323.83 145.506 324.178C140.612 324.689 135.084 325.243 137.221 325.6C140.042 325.4 142.759 325.191 145.57 324.963C155.857 324.124 166.81 322.139 178.573 319.772C184.553 318.549 181.631 319.839 184.218 319.29C185.283 319.158 206.176 313.52 205.264 313.436C204.148 313.428 187.2 317.718 173.295 320.283C159.298 322.94 148.724 323.774 156.364 322.257C159.291 321.694 170.614 321.242 168.535 319.725C197.564 314.512 228.736 305.899 259.523 297.022C287.776 288.8 316.394 279.78 344.953 270.648C318.327 280.504 288.444 289.595 259.791 297.92C252.109 300.148 244.51 302.33 237.05 304.476C232.18 305.909 215.69 310.212 217.964 310.546C230.979 307.171 245.422 303.013 260.007 298.648C278.995 292.965 298.35 286.834 315.02 281.844C315.959 281.563 312.793 283.459 316.325 282.463C322.939 280.611 343.846 272.383 347.534 271.531C348.171 271.41 336.381 276.425 340.288 275.884C350.321 274.497 351.486 269.921 359.647 267.283C365.949 265.269 408.927 253.004 419.144 248.303C429.972 243.326 387.632 258.017 390.443 255.957C418.841 245.395 448.331 236.668 475.783 227.55C475.79 227.548 475.796 227.546 475.801 227.544C475.831 227.531 475.825 227.525 475.794 227.521C475.543 227.486 473.561 227.651 475.545 226.758C476.063 226.527 476.838 226.228 477.942 225.847C488.584 222.176 491.826 222.389 497.144 220.898C502.77 219.279 523.234 212.878 526.315 212.515C526.696 212.462 522.757 214.815 522.127 215.038C513.233 218.163 509.695 217.704 508.872 217.929C505.806 218.814 503.058 220.28 500.278 221.119C495.804 222.469 493.078 222.77 487.211 224.606C483.118 225.889 487.375 225.6 483.451 226.819C482.814 227.016 479.713 227.582 476.094 228.441C471.208 229.586 465.553 231.224 465.137 232.836C465.108 232.994 469.387 231.734 476.464 229.573C494.55 224.591 523.32 213.163 561.793 206.879C565.878 206.378 570.027 205.929 575.153 205.757C577.753 205.688 580.543 205.652 584.43 205.997C588.61 206.8 592.525 205.602 605.201 212.796C609.449 215.493 615.179 220.438 619.008 228.002C622.907 235.509 623.623 243.816 623.072 249.196C621.746 260.143 618.842 263.861 617.126 267.157C613.431 273.153 611.122 275.363 609.024 277.688C598.251 288.477 592.107 290.156 588.263 292.516C584.205 294.618 581.688 295.811 580.309 296.524C587.681 292.648 594.162 292.55 609.547 278.182C611.86 275.684 614.378 273.35 618.268 266.905C620.055 263.385 623.192 259.159 624.114 247.524C624.475 241.786 623.212 233.382 619.186 226.293C615.223 219.133 609.816 214.581 605.736 211.961C599.194 207.891 595.24 207.035 592.151 206.193C595.224 207.037 599.156 207.876 605.735 211.964C609.757 214.548 615.091 219.011 619.06 226.062C623.096 233.051 624.46 241.432 624.14 247.233C623.308 258.955 620.139 263.29 618.363 266.841C614.468 273.378 611.961 275.751 609.67 278.298C599.663 288.51 592.551 291.076 587.829 293.794C582.85 296.348 578.715 298.241 575.09 299.81C567.838 302.925 562.969 304.515 561.753 303.776C546.961 309.876 532.592 315.43 518.034 320.989C452.567 345.796 387.238 369.404 321.977 393.283C307.721 398.28 314.828 393.706 291.668 402.822C297.899 401.142 304.174 399.447 310.372 397.783C301.98 400.574 273.635 410.521 254.488 417.524C246.044 420.61 239.218 423.185 236.736 424.245C235.615 424.727 234.673 426.822 221.681 431.939C210.2 436.487 208.035 436.022 201.91 438.208C196.816 440.028 191.805 442.526 190.858 442.905C190.475 443.049 190.094 443.002 189.707 442.952C189.506 442.93 189.31 442.905 189.171 442.874C189.11 442.854 189.066 442.832 189.11 442.771C189.13 442.741 189.174 442.7 189.268 442.633C189.363 442.564 189.477 442.487 189.724 442.327C190.133 442.054 190.942 441.559 192.345 440.442C193.148 439.795 194.047 439.022 195.153 437.892C196.232 436.804 197.488 435.255 198.056 434.455C199.226 432.089 203.169 429.759 204.247 415.776C204.626 408.839 201.34 399.594 197.388 394.809C193.489 389.804 190.199 387.78 188.057 386.43C183.663 383.895 182.056 383.626 180.761 383.159C179.525 382.779 178.9 382.633 178.396 382.505C177.463 382.274 177.155 382.192 176.915 382.107C176.681 382.027 176.586 381.969 176.497 381.917C176.345 381.817 176.249 381.751 176.158 381.76C176.083 381.77 176.031 381.862 176.504 382.099C176.932 382.3 176.287 382.578 176.806 382.975C176.635 383.006 176.573 383.029 176.594 383.052C176.598 383.074 176.754 383.106 176.452 383.114C176.134 383.122 175.905 383.126 176.046 383.162C176.28 383.234 176.465 383.15 179.164 383.79C176.512 383.201 176.276 383.316 176.039 383.289C175.888 383.296 176.115 383.339 176.439 383.378C176.781 383.422 176.551 383.441 176.594 383.475C176.606 383.507 176.768 383.537 177.028 383.557C177.562 383.598 178.425 383.6 179.296 383.589C181.047 383.567 182.812 383.511 183.858 383.55C186.041 383.585 184.637 384.248 178.757 385.13C177.758 385.27 177.753 385.102 177.721 384.934C177.713 384.762 177.696 384.584 177.181 384.617C176.85 384.638 176.652 384.643 176.605 384.645C176.53 384.644 176.737 384.655 176.374 384.639C176.077 384.626 175.86 384.611 175.886 384.614C175.938 384.626 176.127 384.614 177.331 384.824C177.962 384.947 178.843 385.092 180.675 385.67C182.568 386.486 185.384 386.618 192.046 392.412C195.243 395.294 199.473 401.076 201.018 407.823C202.64 414.538 201.685 420.167 200.772 423.447C198.735 430.063 197.07 431.604 196.153 433.066C195.242 434.364 193.376 436.434 192.182 437.469C191.018 438.512 190.236 439.076 189.652 439.489C188.595 440.221 188.241 440.395 188.06 440.502C187.716 440.688 188.035 440.508 188.357 440.352C189.092 439.989 190.176 439.493 191.252 439.016C193.398 438.066 195.557 437.155 197.51 436.337C201.332 434.738 204.442 433.465 206.521 432.594C210.786 430.816 211.695 430.351 210.112 430.857C208.551 431.359 204.626 432.786 199.665 434.722C197.163 435.701 194.418 436.8 191.747 437.938C190.46 438.487 189.098 439.09 188.192 439.525C187.741 439.739 187.367 439.942 187.605 439.817C187.766 439.722 188.003 439.622 189.052 438.909C189.579 438.541 190.331 438.015 191.507 436.976C192.663 435.991 194.571 433.902 195.493 432.585C196.421 431.05 198.197 429.61 200.24 422.253C201.147 418.638 201.79 412.285 199.526 405.573C197.323 398.843 192.975 394.098 190.028 391.719C183.973 387.065 181.608 386.952 179.934 386.287C178.322 385.81 177.563 385.689 177.009 385.585C175.967 385.409 175.834 385.418 175.818 385.407C175.826 385.404 176.046 385.414 176.334 385.424C176.551 385.431 176.564 385.425 176.574 385.421C176.581 385.417 176.583 385.413 176.633 385.407C176.728 385.396 176.991 385.377 177.36 385.341C178.105 385.271 179.21 385.139 180.331 384.982C182.591 384.665 185.103 384.239 187.342 383.814C192.571 383.962 217.357 379.455 230.494 376.884C234.962 376.025 238.104 375.421 238.476 375.407C240.515 375.333 233.346 377.587 243.092 376.487C245.131 376.308 302.423 364.45 282.044 369.92C277.825 371.061 250.271 376.123 243.62 377.426C259.655 376.715 295.632 366.26 299.783 365.522C316.477 362.59 268.229 373.786 305.734 366.652C334.578 361.152 307.242 364.997 318.189 362.16C324.34 360.567 357.296 355.757 355.982 353.783C367.126 351.337 360.81 353.772 362.205 353.581C363.572 353.383 385.498 348.379 392.736 347.432C393.609 347.319 391.114 348.971 392.024 348.888C393.809 348.694 415.047 344.312 415.894 344.057C416.435 343.883 411.162 343.89 413.209 343.246C414.448 342.856 420.747 341.628 426.574 340.499C431.907 339.465 436.743 338.536 437.316 338.291C438.061 337.932 432.137 339.007 426.472 339.97C420.843 340.923 415.454 341.758 417.48 340.795C420.127 340.348 423.198 339.767 426.313 339.139C437.245 336.93 449.985 333.956 455.979 332.189C454.087 332.777 442.601 334.917 438.634 335.578C440.123 333.596 464.9 329.154 456.683 331.947C461.973 330.305 458.209 330.595 461.146 329.415C461.917 329.105 469.705 327.751 471.208 327.233C471.412 327.133 463.183 327.882 464.762 327.283C467.056 326.137 492.817 322.485 496.156 322.911C502.794 322.787 479.255 325.342 478.351 326.499C478.236 326.575 482.515 326.286 487.343 326.117C492.281 325.913 497.455 326.04 497.404 326.099C498.121 326.711 492.939 327.018 487.947 327.656C483.063 328.264 478.911 328.962 480.072 329.37C484.851 328.937 490.21 328.519 495.687 328.442C474.078 331.16 444.792 336.857 436.517 339.593C461.121 334.39 488.923 330.236 489.97 333.453C489.853 334.647 478.15 336.946 478.735 337.232C480.179 338.007 497.542 334.864 498.021 335.138C498.503 335.182 498.709 335.24 498.714 335.306C498.714 335.306 498.714 335.306 498.714 335.306C498.999 335.637 492.534 336.184 486.421 337.221C480.384 338.207 474.655 339.357 474.151 339.586C472.363 340.406 482.58 341.101 482.676 341.619C482.218 341.715 466.7 344.748 472.126 344.749C477.445 344.676 491.568 342.822 492.314 342.974C494.772 342.978 470.414 346.879 469.997 347.425C469.609 347.619 482.519 346.539 483.003 346.798C483.324 347.006 473.699 349.075 470.068 350.599C467.365 351.707 475.662 350.83 474.228 351.174C473.115 351.357 451.188 355.23 450.146 355.575C448.58 356.034 453.83 355.857 453.129 356.183C452.079 356.655 445.019 357.68 445.981 357.794C446.691 357.827 474.597 355.559 474.566 356.379C474.411 357.576 444.942 359.894 472.753 359.941C472.913 359.938 479.454 358.536 479.665 358.543C483.854 358.821 462.989 363.285 488.72 359.288C441.126 368.283 483.029 361.896 476.294 365.036C473.707 366.205 455.287 369.813 455.248 369.964C457.203 370.619 462.983 368.789 465.036 368.928C466.21 368.978 449.863 373.022 453.722 373.02C455.714 372.987 473.126 369.769 473.884 369.749C480.883 369.25 472.555 371.337 474.137 371.545C475.207 371.655 485.617 370.045 485.879 370.098C486.356 370.092 472.408 373.571 469.507 374.564C467.322 375.282 475.828 374.363 474.297 374.777C465.001 377.215 444.322 378.755 464.412 378.305C465.603 378.283 472.929 376.929 473.18 376.932C477.846 377.039 464.38 379.429 462.077 380.61C458.138 382.591 477.459 378.435 461.451 382.191C473.582 380.894 480.791 379.424 493.756 377.64C456.23 383.727 442.285 390.102 485.407 382.591C471.936 384.644 473.651 386.33 469.58 387.048C467.054 387.476 446.544 389.398 456.574 391.726C457.815 392.008 469.882 389.174 466.25 390.895C436.951 395.978 465.752 391.64 465.794 391.797C465.836 392.816 453.331 395.304 437.64 398.277C415.979 402.368 388.367 407.228 381.183 408.809C366.829 411.974 354.38 416.39 351.243 417.014C340.922 419.062 349.3 416.413 346.922 416.521C344.516 416.64 315.528 424.275 314.028 424.465C308.256 425.188 313.819 422.919 313.21 422.98C306.009 423.696 266.756 432.329 255.519 434.189C255.998 434.864 278.325 430.596 264.617 434.471C248.66 438.973 247.107 435.905 246.678 435.844C245.005 436.162 243.366 436.473 241.77 436.774C231.422 438.724 221.132 440.623 210.626 442.418C205.321 443.32 200.059 444.186 194.463 444.989C188.65 445.685 183.755 446.874 173.197 446.543C171.681 446.438 170.423 446.473 166.608 445.867C165.577 445.682 164.35 445.465 162.303 444.858C160.202 444.066 157.411 443.774 151.133 438.922C148.071 436.443 143.685 431.612 141.478 424.834C139.21 418.074 139.849 411.654 140.789 407.904C142.895 400.276 144.891 398.445 146.084 396.548C152.838 388.153 155.79 387.903 157.416 386.646C159.138 385.671 160.337 385.087 161.375 384.581C163.511 383.552 165.224 382.798 166.938 382.052C170.342 380.579 173.49 379.292 176.64 378.018C182.901 375.495 189.008 373.119 195.178 370.741C207.514 365.993 219.534 361.472 231.859 356.867C255.17 348.164 278.639 339.508 301.961 330.903C300.473 329.583 254.745 347.859 253.613 348.047C246.953 349.031 325.024 320.273 334.765 317.352C327.356 319.679 319.995 321.987 312.572 324.319C324.295 317.862 352.642 310.205 370.256 302.758C375.943 300.353 364.562 303.727 364.772 303.593C371.008 300.462 381.661 297.168 374.215 301.033C389.749 294.227 387.821 296.119 400.019 291.693C400.645 291.464 395.138 292.641 404.661 288.755C409.131 286.936 433.172 277.997 436.143 276.126C437.349 275.359 424.081 276.95 423.499 280.05C396.906 288.523 415.568 284.311 405.385 288.023C403.823 288.584 406.893 285.849 381.507 295.992C385.437 291.644 415.659 282.621 420.592 280.428C430.78 275.926 387.343 290.546 380.17 295.444C383.124 292.088 377.027 296.301 367.402 299.759C356.872 303.544 361.227 301.263 355.544 303.354C339.997 309.069 346.952 308.103 333.681 311.552C347.616 310.878 311.92 320.154 301.492 322.827C317.773 316.603 334.015 310.398 350.273 304.18C349.262 304.318 348.253 304.456 347.243 304.594C351.559 303.036 355.862 301.483 360.173 299.926C359.557 300.378 358.941 300.829 358.325 301.281C380.014 291.822 385.95 291.262 387.752 290.615C411.041 282.193 437.891 272.213 461.245 263.425C464.685 262.116 461.923 261.754 487.703 253.07C489.895 252.328 490.946 252.076 491.527 252.021C493.166 251.852 491.135 253.22 497.711 250.555C508.096 243.424 508.678 245.652 512.066 244.326C521.666 240.537 527.163 237.501 528.081 237.119C533.645 234.781 540.466 231.942 546.826 229.068C549.941 227.66 553.071 226.167 555.156 225.043C556.17 224.503 556.93 224.024 556.788 224.104C556.719 224.148 556.363 224.382 555.765 224.875C555.198 225.329 554.318 226.204 554.395 226.127C554.459 226.055 554.468 226.036 554.398 226.109C554.391 226.11 554.394 225.907 554.177 225.922C554.082 225.907 554.209 225.657 554.187 225.582C554.18 225.54 554.137 225.538 554.065 225.574C554 225.602 553.883 225.694 553.899 225.659C553.924 225.613 553.958 225.566 553.909 225.629C553.85 225.711 553.738 225.83 553.182 226.633C552.906 227.135 552.533 227.32 550.715 231.313C549.952 233.548 547.942 236.595 547.858 246.153C547.901 250.838 549.25 257.75 552.807 263.747C556.305 269.8 561.102 273.85 564.642 276.041C573.557 281.087 575.736 280.103 577.154 280.408C578.414 280.416 578.329 280.212 577.874 280.094C576.872 279.831 574.241 279.758 571.219 279.917C564.837 280.017 555.189 282.175 545.445 285.528C551.53 284.038 557.63 282.635 562.83 281.732C557.731 281.812 506.005 299.105 518.953 296.127C526.909 294.205 544.744 286.249 547.344 288.012C540.676 289.588 521.587 295.418 500.267 302.48C468.541 312.974 432.241 325.445 427.672 326.599C426.618 326.868 432.726 324.027 431.268 324.41C430.17 324.7 408.155 332.221 405.143 332.907C403.348 333.32 412.941 329.64 412.066 329.641C411.317 329.691 383.639 338.516 382.356 339.936C389.024 337.34 408.151 331.351 398.429 335.423C397.174 335.945 390.329 337.559 388.805 338.196C374.687 344.102 417.888 329.51 424.526 327.288C397.821 337.476 355.32 350.053 323.702 360.885C310.594 364.209 342.388 353.663 327.648 357.661C297.014 365.906 319.948 361.255 319.031 361.654C311.784 364.825 284.762 368.597 285.642 371.717C284.213 372.08 283.032 372.369 282.022 372.608C274.933 374.285 275.978 373.732 262.291 378.068C264.476 377.678 266.532 377.321 268.695 376.93C251.924 383.973 212.741 389.124 215.456 387.939C223.007 385.152 242.889 381.426 244.525 380.906C246.991 380.141 252.946 375.218 280.238 370.251C280.638 370.042 280.944 369.866 281.162 369.719C281.797 369.287 281.669 369.121 280.992 369.148C276.033 369.438 241.342 379.659 261.425 372.596C245.632 377.98 176.253 393.491 164.209 394.706C162.887 394.921 169.193 396.594 151.438 397.378C151.02 397.387 150.589 397.395 150.147 397.401C146.481 397.45 148.418 397.157 151.39 396.791C155.45 396.324 160.982 395.542 158.661 395.527C157.471 395.515 154.989 395.671 151.315 395.868C146.142 396.121 138.598 396.621 129.01 397.173C124.252 397.44 118.969 397.732 112.987 397.903C109.977 397.982 106.794 398.046 102.924 397.943C100.955 397.881 98.8619 397.804 95.8847 397.469C94.4123 397.291 92.6503 397.069 90.0508 396.461C87.2559 395.447 84.3019 396.115 74.8659 388.935C68.8302 384.135 62.8521 374.112 62.4463 364.38C61.8989 354.701 64.8423 348.271 67.0367 344.147C74.2125 329.968 88.7146 316.628 100.437 309.385C118.349 297.91 135.867 288.783 151.376 281.235C169.305 272.491 184.54 266.699 191.579 264.022C193.426 263.33 193.011 264.22 194.827 263.541C200.457 261.374 220.38 253.345 230.387 250.428C209.433 256.031 249.326 242.692 259.453 239.776C270.405 236.497 273.237 236.323 276.449 235.809C277.713 235.616 279.026 235.374 280.977 234.852C306.783 227.941 345.412 213.437 365.945 210.175C364.096 207.927 400.505 201.329 416.542 196.64C429.108 192.961 446.825 185.903 429.566 189.858C451.278 183.597 473.942 176.409 494.172 170.244C497.506 169.227 493.141 171.346 498.803 169.592C499.317 169.427 499.855 168.459 504.707 166.933C544.985 154.207 525.755 161.65 533.447 159.854C536.964 159.028 539.84 158.294 541.915 157.73C542.368 157.606 542.791 157.488 543.188 157.375C542.771 157.505 542.35 157.635 541.926 157.767C518.886 164.924 492.442 173.035 485.297 175.174C490.896 175.014 523.744 164.047 542.086 158.292C545.809 157.129 548.772 156.235 551.058 155.616C551.531 155.489 550.174 156.89 550.652 156.751C550.662 156.748 550.672 156.745 550.682 156.742C555.806 155.295 587.489 145.074 580.638 146.018C578.833 146.278 564.137 150.879 546.669 156.293C551.328 154.654 547.488 154.719 548.31 154.421C558.358 150.831 583.328 144.192 591.944 141.508C593.922 140.899 593.547 140.308 593.865 140.203C601.64 137.807 599.177 140.681 606.212 136.165C620.681 133.809 580.411 145.167 583.408 145.673C584.109 145.771 590.702 143.914 599.832 140.965C608.252 138.299 622.842 133.007 624.96 131.006C628.276 128.668 631.122 126.235 632.151 125.014C632.661 124.446 632.635 124.207 631.978 125.181C631.369 126.082 630.024 128.73 629.723 132.405C629.745 132.694 629.194 135.579 630.723 141.027C632.148 146.533 636.875 152.568 640.296 154.952C647.245 159.744 648.77 159.011 649.702 159.478C650.537 159.675 650.439 159.686 650.253 159.745C650.04 159.794 649.666 159.849 649.287 159.916C648.193 160.102 647.304 160.349 647.353 160.557C647.125 160.367 646.229 160.142 644.082 160.032C639.63 159.377 615.183 163.985 611.069 165.535C610.378 165.765 611.076 167.494 610.205 167.714C609.489 167.897 605.841 168.591 600.844 169.722C590.622 172.012 573.348 176.679 565.406 179.678C571.999 178.07 578.522 176.451 584.91 174.896C546.143 186.034 551.98 184.844 565.325 181.666C565.965 181.489 566.635 181.371 567.266 181.199C577.558 178.677 590.271 175.435 590.447 175.553C591.98 175.749 525.024 194.934 537.405 189.616C539.201 188.943 570.331 181.022 554.683 184.139C551.964 184.706 532.142 190.482 531.041 190.614C523.832 191.704 566.952 178.602 561.279 178.8C551.126 182.941 537.407 186.061 525.367 189.575C519.863 191.181 518.797 192.41 518.104 192.611C508.003 195.499 513.47 193.069 510.046 193.984C508.287 194.477 488.738 201.57 491.815 197.853C474.449 202.797 465.08 205.468 461.322 206.691C458.72 207.542 459.034 207.626 461.435 207.157C468.394 205.798 492.489 199.872 514.526 194.023C501.986 198.391 476.737 204.195 465.591 207.138C463.052 207.814 463.145 208.199 461.848 208.857C461.114 209.237 459.919 209.706 457.409 210.385C443.431 214.268 376.235 228.799 358.74 232.43C369.394 229.665 366.026 229.373 357.766 231.321C349.52 233.263 356.766 233.035 355.187 233.545C353.485 234.107 314.527 242.177 308.099 243.76C337.228 236.775 330.41 237.244 305.569 242.644C309.1 241.559 312.613 240.476 316.139 239.389C301.688 243.043 270.746 248.2 262.418 250.464C261.111 250.824 266.048 250.642 265.314 250.844C258.03 252.81 232.672 257.321 231.546 257.85C230.589 258.306 241.524 256.726 237.598 257.926C236.756 258.182 226.169 259.236 216.02 261.651C212.246 262.548 214.7 262.872 213.755 263.118C205.933 265.146 210.289 262.845 195.778 266.057C185.13 268.401 177.432 271.349 162.499 273.814C203.869 267.067 181.125 271.355 160.798 275.525C156.924 276.312 153.374 277.044 150.119 277.743C146.848 278.427 150.04 279.422 130.097 282.284C171.582 271.929 118.027 283.22 106.577 284.773C105.925 284.863 105.629 283.933 100.018 284.762C99.5331 284.832 100.377 285.391 95.1312 286.195C70.3263 289.898 63.9209 289.515 64.7867 289.382C65.4486 289.155 71.6933 288.377 66.3672 288.404C64.3412 288.386 56.3001 289.064 47.59 288.624C44.7812 288.498 41.926 288.389 37.8716 287.895C35.7612 287.599 33.4785 287.349 29.2823 286.11C27.1744 285.452 24.4122 284.501 20.8626 282.457C17.3628 280.512 13.1868 276.891 10.9777 274.173C3.0305 265.104 0.531494 252.5 1.65682 244.175C2.17184 240.041 2.77247 238.426 3.85046 235.581C5.02638 232.816 7.16935 228.244 11.3884 222.527C23.5941 207.228 32.0608 202.271 39.0091 197.431C39.7796 197.051 40.4981 197.385 53.0149 190.277C54.0162 189.722 55.0347 189.142 55.8905 188.636C57.8331 187.482 58.7325 186.76 55.6103 188.081C55.4664 188.143 55.3146 188.209 55.1548 188.28C49.1937 190.923 41.5206 194.994 33.0011 200.957C28.7343 203.969 24.2576 207.422 19.4931 211.982C17.1168 214.275 14.6554 216.843 12.0631 220.121C9.45294 223.657 6.68674 226.743 3.42206 235.432C-1.86549 249.972 3.19887 265.848 10.759 274.358C13.6664 278.034 19.3315 282.306 22.9897 283.989C26.7998 285.864 29.2758 286.536 31.2078 287.075C35.02 288.062 37.0518 288.309 38.9664 288.602C42.6331 289.114 45.1356 289.353 47.5146 289.628C47.518 289.628 47.5214 289.628 47.5248 289.629C50.4194 289.952 51.9485 290.103 51.7292 290.2C51.6187 290.298 49.7849 290.321 47.4849 290.242C45.612 290.173 43.2782 290.084 39.6844 289.711C37.796 289.49 35.7792 289.303 31.9788 288.438C30.0535 287.959 27.5698 287.378 23.5766 285.576C19.7652 284.004 13.1784 279.382 9.83483 275.136C1.92179 266.326 -3.16077 249.71 2.24129 235.02C6.05894 225.028 9.07892 222.105 11.7937 218.502C14.5187 215.197 16.8403 212.892 18.8665 210.972C22.885 207.21 25.5656 205.21 26.1727 204.714C27.2879 203.756 16.1247 213.548 27.8635 204.223C34.7402 199.006 44.6252 191.882 54.7439 186.364C59.0418 183.988 63.6528 181.725 67.8689 180.002C68.9816 179.487 80.3972 176.46 79.9055 176.795C79.5656 176.89 62.9555 184.453 65.5855 183.864C65.9036 183.719 76.5433 179.1 77.9894 178.931C79.7874 178.638 85.8194 180.639 87.9779 179.918C93.6272 178.012 89.7197 178.513 93.308 177.218C101.126 174.3 127.872 166.287 128.271 164.699C123.885 166.104 119.503 167.525 115.115 168.973C139.342 160.44 128.784 163.489 132.153 162.042C135.673 160.552 135.137 162.038 143.286 159.444C145.078 158.822 179.019 147.503 178.252 147.235C159.629 154.112 166.216 150.381 165.31 150.64C161.954 151.623 158.104 153.787 153.583 155.254C122.381 165.447 153.383 153.726 145.913 155.834C143.431 156.53 138.481 158.961 137.475 159.259C133.871 160.34 133.534 159.434 131.261 160.285C125.78 162.334 132.698 161.433 132.253 161.66C127.675 164.079 108.219 169.719 119.609 164.187C112.317 166.15 111.999 168.183 106.106 169.517C94.2821 172.26 111.43 166.451 115.899 164.678C132.041 158.191 137.089 157.214 160.137 149.417C168.391 146.636 178.129 142.586 181.856 141.344C183.053 140.945 189.108 139.746 195.186 138.025C201.502 136.241 207.807 133.863 207.379 131.398C216.442 129.024 231.42 127.638 240.496 124.66C248.723 121.959 245.563 121.172 246.321 120.867C247.463 120.403 257.469 117.434 260.772 116.16C264.661 114.658 262.485 114.656 268.658 112.468C284.06 107.019 284.169 108.799 285.809 108.409C304.777 103.916 295.918 104.078 299.98 102.619C303.769 101.25 357.877 85.6295 369.03 81.5748C364.511 83.3201 360.014 85.059 355.5 86.804C364.065 85.3069 372.303 80.9476 373.019 82.7495C373.761 79.2587 391.432 76.0339 396.509 74.3977C398.508 73.7516 398.189 73.2931 400.718 72.496C410.537 69.3964 432.848 63.0198 438.156 61.1147C460.879 52.9544 401.259 69.1603 396.563 70.4748C405.902 67.6551 458.348 50.8927 433.732 56.8492C429.873 57.7869 423.718 61.1283 421.602 61.8325C407.485 66.5234 418.303 61.9083 417.148 62.1369C415.22 62.5254 406.163 66.5587 403.673 67.1695C402.832 67.3782 407.819 64.6684 394.226 68.7997C400.589 65.7046 439.011 54.8972 443.933 53.1215C445.706 52.4818 433.772 53.6815 467.128 45.8583C466.688 45.7651 466.248 45.6721 465.806 45.5794C483.864 39.9565 502.048 34.2888 520.117 28.6093C518.362 29.6777 508.428 33.8011 521.154 29.6456C521.362 29.5774 521.559 29.5119 521.745 29.4489C528.245 27.2536 522.736 27.8548 523.392 27.619C525.177 26.9755 535.199 23.8512 549.189 19.4455C556.204 17.2323 564.052 14.7541 572.377 12.033C576.478 10.6891 580.639 9.30608 584.409 7.96836C586.166 7.34854 588.151 6.59268 588.534 6.42327C588.578 6.40786 588.483 6.43582 587.787 6.78277C587.578 6.88803 587.319 7.02202 586.994 7.19864C586.66 7.38175 586.324 7.56397 585.618 7.9901C584.184 9.11547 583.02 8.74708 576.193 15.9993C574.064 18.4955 571.345 22.0183 568.96 27.8496C565.174 35.8478 564.552 51.9374 570.194 62.2895C575.122 72.5635 583.358 78.1218 585.573 79.4896C588.896 81.5752 591.386 82.603 593.335 83.3404C599.221 85.3752 600.361 85.1833 601.578 85.434C602.553 85.564 602.959 85.589 603.157 85.606C603.359 85.6209 603.344 85.6177 603.24 85.612C602.775 85.3974 594.815 86.1064 588.438 87.0566C581.717 88.0063 574.885 89.1384 568.725 90.2012C556.302 92.3543 546.086 94.3162 540.931 95.3269C533.037 96.855 511.463 102.065 509.722 102.445C508.155 102.776 505.922 103.224 503.172 103.767C489.184 106.516 462.98 111.569 457.017 112.933C452.645 113.932 457.018 113.97 453.07 114.753C449.381 115.485 453.009 113.8 451.908 113.992C442.751 115.541 374.224 131.333 357.67 134.041C367.704 132.136 417.224 119.725 416.057 119.334C415.821 119.294 403.552 121.2 401.14 122.057C396.861 122.168 383.142 127.532 375.357 128.721C374.477 128.856 377.617 126.815 363.81 129.526C359.04 130.464 346.849 134.146 334.101 135.696C316.127 140.123 220.553 159.01 214.297 161.818C214.16 161.926 227.602 159.532 218.735 162.047C206.749 165.432 217.161 160.491 202.983 163.312C201.797 163.545 186.661 166.897 174.923 169.519C167.241 171.234 160.994 172.642 160.55 172.802C152.53 175.535 166.183 173.255 175.374 171.63C179.557 170.895 183.06 170.244 182.91 170.332C182.558 170.547 179.43 171.339 175.512 172.275C166.671 174.384 153.065 177.371 152.167 177.487C151.166 177.59 173.856 170.786 146.096 177.413C149.442 176.949 152.602 176.521 155.865 176.07C142.883 179.282 141.205 178.237 138.059 178.812C127.934 180.633 118.026 184.889 100.556 185.565C95.8328 185.733 103.287 183.62 102.7 183.616C100.289 183.662 97.6602 184.39 94.4887 185.16C92.8037 185.556 91.1017 185.956 88.6135 186.308C86.0201 186.343 83.3505 188.062 70.4298 185.414C68.6219 184.832 66.0548 184.541 59.5674 181.107C56.3661 179.27 51.5254 176.297 46.6112 169.762C41.598 163.365 38.6386 153.17 38.8729 146.277C38.9443 144.964 38.6655 146.876 39.3495 151.808C39.8963 156.675 43.2481 166.34 49.3659 172.626C62.2252 184.905 68.3191 183.512 70.6268 184.578C72.283 184.962 76.0398 185.48 77.6372 185.501C79.5285 185.578 80.3825 185.507 80.7717 185.46C81.3685 185.168 80.0993 185.933 70.7692 183.974C69.8657 183.736 68.6285 183.448 66.2467 182.616C63.8246 181.576 60.2477 180.938 52.9258 174.814C49.4141 171.757 44.8037 166.256 42.2732 159.158C39.6635 152.089 39.6345 144.91 40.4317 140.062C42.1738 130.517 44.9201 127.041 46.6054 124.171C53.3898 114.667 56.183 113.428 60.2315 109.78C61.3964 108.818 62.6483 107.814 63.9877 106.774C62.6705 107.674 61.3623 108.597 60.0493 109.56C58.9735 110.353 57.8928 111.171 56.6844 112.147C57.315 111.517 58.4487 110.463 59.8132 109.275C69.562 100.262 93.0073 86.2812 96.5146 84.5337C108.421 78.2396 98.7782 84.9305 110.444 78.4888C102.14 80.7642 137.689 62.3714 136.266 64.912C137.361 63.8281 140.383 62.0724 144.536 59.9705C155.759 54.2594 174.884 46.3917 185.186 41.8339C194.083 37.8633 211.864 29.1722 214.726 28.0367C218.209 26.6442 217.668 28.2535 223.986 25.8153C225.786 25.1163 243.901 16.2652 260.652 10.5725C263.884 9.47059 271.345 8.63348 265.702 11.6082C256.05 16.687 236.458 23.2259 237.202 24.2899C238.01 25.3985 263.185 13.7427 270.105 11.0239C302.14 -1.61175 284.364 7.45854 285.369 7.50142C287.89 7.58128 305.198 0.299499 305.974 0.086237C309.144 -0.779315 297.14 5.13949 297.237 5.80256C297.309 6.67763 314.61 1.10627 310.926 2.95063C305.63 5.58425 289.839 10.8313 288.871 11.3088C276.516 17.3953 294.643 11.8675 299.786 10.7562C301.354 10.4178 295.747 13.2897 296.984 12.8652C315.858 6.38624 299.794 8.7232 312.119 3.8763C323.103 -0.429344 309.55 6.58664 310.025 6.46769C310.563 6.32314 323.491 1.02812 325.801 0.557434C325.818 0.55378 325.835 0.550377 325.851 0.547228C325.896 0.538489 325.884 0.557398 325.819 0.601771C324.35 1.60312 294.127 16.7336 295.912 17.1632C306.232 12.5741 316.656 7.97183 326.993 3.44061C327.336 3.2906 327.677 3.14134 328.016 2.9928C328.276 3.17535 327.942 3.51045 327.202 3.94591C324.03 5.82657 313.176 9.59072 311.921 10.2482C308.805 11.8711 318.114 8.7914 317.886 9.38466C317.813 9.72966 307.602 15.109 317.342 11.5206C319.435 10.7534 322.922 8.89002 328.317 6.64204C331.438 5.34175 335.065 3.96085 339.57 2.51619C335.139 4.48941 331.619 6.08949 328.653 7.45642C304.357 18.7129 327.7 9.78398 329.003 9.74755C330.31 9.71664 313.963 17.6424 330.1 10.9559C331.529 10.365 333.127 9.69616 335.038 8.89016C336.88 10.7842 335.418 10.1594 330.589 12.1374C329.876 12.4293 329.082 12.783 328.201 13.2184C320 17.2869 339.8 10.0466 308.856 22.1703C310.44 22.5368 323.693 17.2464 331.421 14.1507C334.512 12.9094 336.663 12.0386 337.067 11.9038C338.226 11.5291 333.001 14.3884 335.033 13.7885C359.15 6.63237 342.789 12.0988 350.124 10.8539C350.77 10.7314 372.888 2.41728 356.303 9.40104C347.167 13.2607 339.612 16.2891 333.347 18.8084C318.975 24.5928 311.754 27.5522 309.278 31.6163C317.608 28.8154 326.466 25.1953 334.529 21.6665C348.796 15.42 360.903 9.3629 365.286 7.56866C375.687 3.3169 365.187 8.41912 366.557 8.11618C367.05 7.99199 376.013 4.33146 376.168 4.34534C382.1 4.54952 353.932 14.3611 334.637 21.9291C329.423 23.9596 324.836 25.8136 321.762 27.2155C325.851 26.0101 329.912 24.8204 334.021 23.6159C328.711 25.8324 323.417 28.0517 318.134 30.2741C343.754 20.6197 319.15 30.2154 313.816 35.1368C312.63 36.2345 328.812 28.4409 310.517 37.7613C324.556 32.2802 320.371 34.573 332.701 28.6988C332.737 29.7423 304.778 42.6002 293.796 47.8136C330.521 33.4862 313.295 37.4742 337.378 28.558C339.548 27.7564 341.947 26.8949 344.787 25.8936C349.281 23.0229 340.768 26.4416 337.097 27.8783C336.026 28.2959 335.38 28.5383 335.669 28.3679C336.063 28.1354 336.509 27.897 337.003 27.651C342.25 25.0492 352.902 21.4653 364.418 14.2888C366.468 13.0099 356.641 15.58 370.489 10.0637C372.038 9.44471 381.24 6.97071 381.163 7.09291C380.295 8.35802 371.477 11.5287 371.24 12.0174C371.031 12.4636 380.683 8.39069 380.755 8.47114C381.44 9.3588 372.775 12.0916 374.138 11.9152C377.044 11.5354 412.854 -0.160747 366.99 17.3607C404.424 1.10624 371.379 14.216 356.818 20.7109C353.132 22.3442 352.379 23.3497 347.136 25.7468C344.144 27.1157 340.915 28.4597 337.853 29.7071C334.074 31.2455 330.645 32.5952 328.655 33.4939C324.886 35.207 347.232 27.5538 315.592 40.2411C322.016 38.1944 330.16 34.9288 338.568 31.4364C351.963 25.8684 366.103 19.7167 376.022 16.457C408.567 5.83706 354.866 27.7062 349.337 30.3539C347.866 31.0194 353.195 29.7743 352.216 30.2341C351.624 30.5125 346.349 32.6297 340.118 35.1853C330.679 39.0519 318.833 44.027 317.184 45.1903C314.48 47.1006 328.321 40.5042 329.597 40.7941C330.425 40.9721 293.957 57.2309 314.019 49.1948C321.471 46.2104 332.079 41.211 341.005 37.3323C348.698 33.9892 355.181 31.4538 357.498 31.596C352.143 33.8394 346.796 36.093 341.432 38.3631C326.683 44.6055 311.857 50.9484 297.113 57.3196C308.491 53.4186 319.832 49.569 331.229 45.7317C308.645 55.4148 288.727 62.8024 267.766 73.0855C320.32 53.5658 251.873 82.1591 251.301 82.858C251.126 83.134 272.201 76.4103 275.624 75.3916C257.926 83.7491 204.023 107.971 236.739 96.4874C230.74 98.4479 217.472 105.971 217.709 105.996C219.916 106.261 249.943 92.2382 245.432 95.3955C240.183 99.0367 231.467 101.02 222.737 105.045C193.273 118.696 189.837 123.542 178.209 130.785C172.203 134.585 163.981 139.004 149.571 146.127C150.489 145.894 151.442 145.646 152.371 145.412C136.538 153.473 119.813 162.79 110.473 170.341C109.966 170.753 109.548 171.107 109.344 171.284C109.155 171.436 109.123 171.509 109.839 170.721C110.221 170.281 110.791 169.67 111.92 168.084C112.993 166.21 115.03 164.652 117.618 155.302C118.722 150.722 119.896 142.096 116.229 132.083C112.609 122.033 105.286 115.423 101.026 112.644C92.1515 107.159 90.071 107.755 88.8623 107.23C88.4194 107.121 86.783 106.778 85.4745 106.616C85.1346 106.571 84.7811 106.53 84.4518 106.497C84.1546 106.466 83.8611 106.44 83.5757 106.418C83.2902 106.397 83.0129 106.379 82.747 106.365C82.5112 106.353 82.2975 106.345 82.0866 106.338C80.3707 106.293 79.7528 106.358 79.3339 106.382C78.6249 106.442 78.9515 106.431 79.3443 106.381C80.2216 106.276 81.7369 106.046 83.2787 105.79C86.3998 105.273 89.9099 104.63 93.3885 103.977C100.364 102.663 107.523 101.247 114.744 99.8017C129.223 96.8983 143.493 93.9638 158.124 90.9352C159.073 90.7389 160.033 90.5401 161.004 90.3391C181.425 84.053 236.425 70.9884 263.689 65.3141C269.164 64.1725 296.261 59.3377 298.332 59.07C302.166 58.5831 281.519 63.165 290.988 61.7604C292.99 61.4549 338.613 52.0613 335.141 51.7337C330.007 52.7102 314.147 56.6642 311.481 56.9846C292.708 59.166 433.549 30.4549 440.432 28.418C437.239 28.7367 434.09 29.0472 430.866 29.3749C439.791 27.6715 448.727 25.9753 457.664 24.2929ZM65.0972 100.687C70.2388 95.4456 84.0172 87.6713 91.5231 83.115C101.93 76.568 117.863 63.865 112.051 71.4591C96.7677 79.8868 81.7346 88.2839 65.0972 100.687ZM301.976 145.642C291.127 147.402 298.995 143.37 307.934 142.412C308.934 142.307 316.591 143.272 301.976 145.642ZM189.488 168.803C190.025 168.658 199.157 166.757 199.567 166.705C208.125 165.802 180.012 171.652 189.488 168.803ZM485.084 41.4941C496.506 37.8863 487.657 38.4342 480.688 41.4629C480.252 41.6533 484.337 41.7283 485.084 41.4941ZM493.292 39.0325C502.764 38.0686 519.699 28.9102 505.434 33.702C504.135 34.1429 492.832 39.0798 493.292 39.0325ZM263.632 152.994C264.699 152.035 275.778 149.993 280.566 149.134C280.548 149.802 268.272 151.91 263.632 152.994ZM542.816 94.05C543.205 93.361 506.57 100.597 502.836 102.114C502.765 102.142 502.706 102.169 502.66 102.192C502.718 102.177 502.779 102.162 502.843 102.146C509.349 100.485 542.494 94.5709 542.816 94.05ZM571.787 14.0601C572.76 13.8719 584.811 9.65471 584.079 9.344C578.53 10.6382 567.465 15.0052 571.787 14.0601ZM381.346 72.8138C380.675 73.1492 391.316 73.1765 367.684 78.2468C364.218 78.9912 376.04 74.5145 374.807 74.774C372.23 75.3327 370.217 75.8419 368.613 76.3135C379.255 72.7839 390.363 69.2592 391.497 69.1114C396.824 68.4234 381.631 72.6722 381.346 72.8138ZM281.504 105.92C279.443 107.092 265.235 111.2 261.986 111.988C261.423 112.121 263.427 110.089 257.083 112.162C252.01 113.824 260.043 112.773 250.039 115.649C239.896 118.571 253.074 113.445 252.173 113.652C250.935 113.938 235.597 119.361 235.829 118.451C236.013 117.769 252.844 112.951 256.868 111.573C262.096 109.782 255.422 110.814 264.289 108.289C269.851 106.706 267.306 109.316 268.498 109.039C269.524 108.793 288.564 101.863 281.472 105.924C281.483 105.923 281.493 105.922 281.504 105.92ZM365.733 77.2756C366.524 76.972 367.463 76.6518 368.613 76.3135C367.647 76.634 366.685 76.9571 365.733 77.2756ZM97.3688 186.524C99.802 186.298 98.7056 186.726 95.931 187.361C94.5609 187.671 92.6606 188.059 90.0534 188.448C86.999 188.449 85.3438 190.634 69.8532 187.859C67.3654 186.882 63.6785 187.654 52.1285 179.42C46.5116 175.378 38.5745 165.049 36.7657 154.49C34.7798 144.021 36.7069 137.192 37.9721 132.959C40.8619 124.648 43.0465 122.399 44.5383 120.141C46.0505 118.095 47.179 116.85 48.051 115.92C48.104 115.953 47.8452 116.311 47.0802 117.303C46.358 118.286 45.2088 119.619 43.0732 123.076C42.0412 124.846 40.5589 127.202 38.8417 132.077C37.462 136.702 34.0121 146.337 39.347 161.085C45.2023 175.845 56.2626 181.799 60.742 183.94C65.8499 186.266 68.3225 186.683 70.0268 187.123C71.2252 187.416 74.141 187.969 76.3434 188.152C78.5449 188.357 80.3243 188.372 81.5741 188.355C84.2149 188.307 85.7117 188.145 87.007 188.017C89.5176 187.749 91.1725 187.488 92.5655 187.278C95.3376 186.848 97.0849 186.546 97.3688 186.524ZM356.204 81.6761C340.141 86.1421 351.689 81.9744 365.733 77.2756C361.322 78.9687 361.598 80.176 356.204 81.6761ZM401.14 122.057C401.85 122.039 402.325 122.144 402.449 122.458C400.579 122.485 400.375 122.328 401.14 122.057ZM439.179 114.599C451.966 110.868 425.597 116.47 425.869 117.158C426.049 117.399 438.621 114.756 439.179 114.599ZM470.242 45.9391C471.462 45.6687 454.313 54.1203 479.826 43.9048C465.777 47.8325 480.421 42.9974 480.092 42.8178C479.37 42.2357 456.027 50.157 450.677 51.4438C446.995 54.0108 466.384 46.7801 470.212 45.9481C470.222 45.9451 470.232 45.9421 470.242 45.9391ZM99.3447 163.991C102.321 162.038 112.769 158.603 119.666 156.293C116.688 158.165 106.361 161.481 99.3447 163.991ZM573.76 281.047C575.898 281.596 576.816 281.671 577.397 281.749C577.959 281.813 578.126 281.819 578.142 281.829C578.152 281.842 577.567 281.859 576.868 281.912C575.422 282.014 573.449 282.223 571.547 282.458C561.972 283.673 553.717 285.787 553.661 285.249C553.096 285.045 560.989 282.041 571.353 280.955C572.988 280.788 574.661 280.66 576.069 280.624C576.252 280.603 578.614 280.745 578.07 281.029C577.828 281.154 576.411 281.204 574.49 280.885C573.591 280.745 572.703 280.542 572.481 280.531C572.238 280.511 572.74 280.738 573.76 281.047ZM188.438 397.077C183.273 396.638 199.456 393.248 209.806 391.343C212.137 390.937 221.08 390.268 211.341 392.899C211.235 391.163 195.933 394.033 188.438 397.077ZM347.468 85.3123C343.11 87.6468 328.632 91.3768 321.064 93.5526C325.422 91.39 340.731 87.0639 347.468 85.3123ZM441.126 320.514C436.168 322.054 433.291 324.327 434.16 324.147C438.081 323.341 446.929 319.326 441.126 320.514ZM393.602 71.3459C394.424 71.691 375.674 78.0009 373.938 77.0566C378.02 75.9137 393.03 71.1459 393.602 71.3459ZM112.617 159.721C115.663 158.951 100.455 164.852 95.59 166.377C95.7387 165.641 110.652 160.178 112.617 159.721ZM362.156 347.105C357.717 348.443 346.632 352.002 345.566 352.873C344.232 353.97 360.403 348.502 362.156 347.105ZM333.012 426.111C333.627 426.22 316.392 431.297 308.503 432.432C293.516 434.587 332.375 426.08 333.012 426.111ZM487.153 304.533C501.272 301.132 485.621 305.074 486.646 306.053C490.053 304.946 495.544 303.159 499.998 301.656C507.547 299.112 512.803 297.142 502.703 299.607C501.94 299.795 500.876 300.105 499.618 300.494C495.886 301.645 490.409 303.522 487.153 304.533ZM474.328 308.338C472.955 309.219 463.465 313.717 471.992 310.786C475.985 309.413 481.87 305.97 474.328 308.338ZM223.688 447.807C216.937 448.435 229.23 446.154 243.052 443.584C256.355 441.12 271.009 438.455 271.853 438.389C272.766 438.316 273.374 438.296 273.726 438.31C275.85 437.542 286.936 435.31 288.423 435.919C285.043 436.509 275.967 438.361 274.885 438.471C274.415 438.52 274.065 438.548 273.821 438.555C271.68 439.42 256.432 442.324 243.248 444.624C233.38 446.351 224.854 447.69 223.688 447.807ZM203.76 360.62C190.213 367.517 186.667 365.962 187.867 365.393C202.914 358.381 193.548 364.179 194.093 364.069C195.209 363.804 205.825 358.748 203.716 360.637C203.731 360.631 203.745 360.626 203.76 360.62ZM202.826 450.903C203.52 450.784 216.426 448.698 216.901 448.64C227.634 447.787 191.049 453.641 202.826 450.903ZM206.262 131.393C197.658 133.821 205.645 130.226 211.563 128.75C212.068 128.63 213.927 129.232 206.262 131.393ZM467.628 310.854C465.596 311.317 414.836 327.488 418.345 327.934C422.628 326.321 480.25 307.94 467.628 310.854ZM80.9569 318.111C70.1991 328.932 80.8927 315.471 87.1278 311.617C89.4032 310.079 83.667 315.476 80.9569 318.111ZM419.462 64.8186C428.592 61.1935 427.434 64.3467 419.06 65.9467C418.734 66.0089 419.108 64.9594 419.462 64.8186ZM148.759 401.431C119.874 404.355 122.031 400.836 151.546 398.71C156.488 398.333 162.02 397.824 168.065 397.16C166.597 397.577 165.182 397.976 163.698 398.372C216.809 390.13 168.244 398.908 153.907 400.03C152.772 400.153 152.098 400.259 151.68 400.362C150.321 400.727 152.033 401.086 148.79 401.434C148.78 401.433 148.769 401.432 148.759 401.431ZM130.694 286.332C156.838 276.265 120.409 292.489 98.6122 306.555C93.8353 309.59 89.5866 312.78 86.5621 315.387C90.3894 311.833 94.515 308.641 98.2652 306.016C109.726 298.082 117.603 293.218 97.3162 304.544C96.5831 304.981 95.8541 305.422 95.0577 305.918C95.8204 305.402 96.5303 304.931 97.2597 304.457C135.662 281.095 119.708 292.644 121.412 291.519C123.374 290.563 129.365 286.857 130.694 286.332ZM102.706 402.812C106.029 402.963 121.275 403.054 126.225 402.573C122.624 403.348 114.213 403.907 106.895 403.752C103.253 403.687 99.6369 403.375 98.0744 403.084C96.41 402.768 98.3061 402.842 102.706 402.812ZM301.332 323.565C300.588 324.771 298.166 326.35 287.996 329.749C290.968 328.186 297.284 325.455 301.332 323.565ZM78.0366 97.3636C85.2977 92.6101 99.2817 85.084 94.5786 86.7076C94.1184 86.7528 77.8366 96.7122 78.0366 97.3636ZM319.889 358.687C318.415 359.117 278.928 371.167 292.854 367.907C297.137 366.978 332.765 355.631 319.889 358.687ZM519.821 293.155C516.654 294.135 503.74 298.473 503.523 298.769C502.869 299.722 518.651 294.226 519.821 293.155ZM113.727 77.8779C114.677 77.3845 135.639 66.6861 133.124 67.5096C128.431 68.8368 110.449 79.1916 113.727 77.8779ZM175.553 143.314C173.735 143.932 171.085 143.788 170.472 143.975C168.963 144.406 135.904 155.651 148.256 150.305C149.819 149.596 178.379 140.548 194.438 135.668C199.131 134.234 202.921 133.086 204.32 132.674C205.85 132.924 200.468 134.587 194.63 136.273C189.358 137.8 183.78 139.336 181.456 140.146C180.566 140.458 180.459 141.635 175.567 143.303C175.562 143.307 175.558 143.31 175.553 143.314ZM249.172 343.805C248.565 344.461 239.371 348.225 229.99 351.858C220.019 355.714 210.089 359.35 210.071 358.806C216.623 356.265 223.156 353.75 229.753 351.222C236.165 348.763 242.709 346.267 249.172 343.805ZM268.581 336.772C276.9 334.325 257.991 341.514 252.23 343.375C251.931 342.889 267.447 337.098 268.581 336.772ZM446.245 314.081C442.445 315.563 454.704 312.75 452.125 313.858C450.463 314.566 441.691 317.014 439.047 318.295C438.307 318.669 447.49 316.804 450.011 315.912C453.595 314.647 449.812 314.966 453.771 313.639C466.857 309.257 478.666 305.998 490.916 301.951C492.029 301.581 483.215 303.816 492.67 300.715C493.304 300.507 495.763 299.917 499.14 299.03C503.114 297.978 508.377 296.51 514.305 294.536C534.025 285.804 553.637 280.812 570.98 278.071C572.696 277.84 574.372 277.636 575.794 277.488C577.16 277.333 578.517 277.284 578.205 277.207C578.232 277.175 578.325 277.135 578.208 277.087C578.095 277.039 577.758 276.985 577.128 276.96C575.891 276.903 573.521 276.993 570.872 277.228C566.121 277.571 561.203 278.577 560.466 278.729C546.026 281.817 521.134 289.56 498.444 296.897C484.566 301.393 471.178 305.842 460.678 309.334C453.506 311.72 457.21 311.137 454.142 312.184C451.73 313.005 454.208 310.974 446.245 314.081ZM74.5533 100.431C78.6794 98.9167 90.0918 90.9642 97.517 86.9201C94.4052 87.4587 82.2738 95.4165 74.5533 100.431ZM439.697 274.488C443.383 273.067 454.957 269.098 455.754 268.43C456.845 267.545 440.201 273.476 439.697 274.488ZM55.4264 290.626C56.1724 290.721 68.1349 290.312 68.3733 290.244C73.328 290.311 67.7154 291.029 61.5529 291.214C55.3553 291.416 48.6674 290.857 55.4264 290.626ZM286.872 249.631C293.906 247.948 300.97 246.025 303.54 246.405C299.013 247.263 286.188 250.443 286.872 249.631ZM593.493 174.401C592.7 174.039 596.673 172.781 601.332 171.601C606.699 170.228 613.2 168.998 615.153 168.638C614.422 169.116 607.428 171.055 601.605 172.649C597.596 173.733 593.99 174.634 593.493 174.401ZM304.113 326.597C291.621 331.123 294.943 331.857 286.694 334.012C285.362 334.353 279.854 332.306 294.052 328.601C296.606 327.935 287.279 332.339 304.113 326.597ZM175.619 396.032C179.215 394.659 190.483 392.8 197.902 391.221C196.407 392.203 181.224 395.127 175.619 396.032ZM152.047 60.0049C158.306 58.2489 184.535 45.4257 177.645 47.7355C176.663 48.0423 155.811 58.2394 152.047 60.0049ZM316.251 98.7213C305.185 103.057 328.726 96.1073 335.87 93.0061C332.537 94.0875 317.011 98.4252 316.251 98.7213ZM520.272 194.081C520.776 193.919 533.147 190.718 533.697 190.606C544.03 188.82 509.161 197.84 520.272 194.081ZM213.06 263.93C217.404 262.293 246.703 256.696 253.399 255.992C247.344 258.424 207.73 266.001 213.06 263.93ZM355.176 307.231C346.304 310.543 337.817 313.428 329.533 316.141C331.054 314.923 354.074 307.147 355.176 307.231ZM565.325 181.666C565.965 181.489 566.635 181.371 567.266 181.199C566.601 181.361 565.942 181.518 565.325 181.666ZM550.682 232.779C556.954 230.101 554.921 229.743 554.651 229.863C550.298 231.624 543.175 235.864 550.682 232.779ZM84.2247 96.1725C87.4098 95.316 99.5699 87.2635 106.837 83.6838C104.365 84.0466 90.1156 92.2734 84.2247 96.1725ZM163.833 272.613C169.257 270.897 160.859 275.099 150.923 280.29C141.782 285.013 131.076 290.738 127.068 292.532C126.501 292.339 139.597 284.658 150.377 279.151C157.171 275.628 163.247 272.805 163.833 272.613ZM351.86 89.3958C352.857 89.927 368.862 84.0149 365.291 84.713C363.036 85.1513 351.255 89.0605 351.86 89.3958ZM107.723 302.987C105.668 304.387 101.717 306.577 99.373 307.735C97.5518 308.667 96.6553 308.982 97.9354 307.898C98.2531 307.631 98.598 307.365 98.9644 307.101C102.694 304.355 108.541 302.419 107.723 302.987ZM390.722 331.8C389.1 332.215 367.992 340.027 377.074 337.898C383.379 336.421 383.989 334.999 385.427 334.521C387.046 334 421.726 323.995 390.722 331.8ZM384.111 201.73C376.077 204.422 366.153 206.983 357.672 209.521C360.977 208.022 380.467 202.117 384.111 201.73ZM289.081 108.916C291.16 108.602 344.713 92.3424 314.02 100.735C312.257 101.214 282.811 109.822 289.081 108.916ZM304.113 326.597C305.681 326.03 307.546 325.383 309.652 324.692C307.578 325.423 305.703 326.056 304.113 326.597ZM445.393 274.477C442.756 276.087 457.141 270.869 461.291 268.972C462.322 267.827 445.752 274.26 445.393 274.477ZM357.257 210.492C352.433 212.27 343.464 214.564 337.401 216.413C338.302 215.576 354.954 210.598 357.257 210.492ZM628.852 163.406C637.989 162.084 647.676 161.234 647.432 160.657C647.581 160.755 647.903 160.85 648.4 160.946C648.497 160.966 648.868 160.961 649.291 160.954C649.677 160.947 650.122 160.947 650.25 160.943C650.336 160.914 650.244 160.995 648.428 160.567C646.919 159.862 641.429 159.872 633.656 150.32C630.121 145.668 628.551 139.897 628.231 136.886C627.863 133.731 628.053 132.543 628.025 132.289C628.035 132.063 628.049 131.844 628.064 131.633C628.691 126.212 629.417 125.783 629.162 125.796C629.062 126.006 627.942 127.31 627.415 132.248C627.619 132.481 626.074 136.964 630.426 146.459C632.6 150.933 636.346 154.907 639.301 157.007C642.307 159.19 644.559 160.091 646.084 160.66C649.123 161.702 649.893 161.624 650.158 161.695C650.379 161.72 649.952 161.689 649.294 161.697C631.127 162.386 592.398 170.295 638.368 160.754C635.262 161.552 632.058 162.447 628.852 163.406ZM173.041 270.506C170.062 270.678 164.385 271.863 160.282 272.865C156.197 273.855 153.577 274.679 155.599 274.45C156.327 274.365 158.144 274.062 160.433 273.643C167.061 272.438 177.461 270.247 173.041 270.506ZM389.942 222.876C388.242 223.124 372.998 227.201 372.695 227.703C381.608 226.131 397.769 221.757 389.942 222.876ZM128.84 277.916C125.179 278.444 120.815 280.513 121.215 280.501C124.977 280.348 135.035 277.547 128.84 277.916ZM331.129 320.383C336.312 318.872 352.007 312.085 355.211 309.988C355.918 309.904 357.744 309.462 361.046 308.522C361.036 308.525 361.026 308.529 361.016 308.533C365.525 307.324 495.029 259.589 407.67 290.299C404.939 291.254 408.933 290.599 397.808 294.573C397.075 294.834 396.496 294.377 394.227 295.184C389.007 297.048 361.167 306.904 355.771 309.43C355.683 309.338 355.285 309.367 354.485 309.553C347.339 311.22 327.123 321.552 331.129 320.383ZM420.39 215.674C417.217 216.182 407.484 218.682 406.613 219.454C411.543 218.591 427.699 214.517 420.39 215.674ZM291.411 110.584C297.734 109.11 313.084 103.492 308.233 104.51C305.236 105.137 284.153 112.273 291.411 110.584ZM322.372 238.378C358.672 230.925 330.992 236.397 336.351 234.362C331.696 235.703 327.031 237.043 322.372 238.378ZM169.053 379.026C174.831 376.873 169.335 380.675 161.089 383.572C159.618 384.137 161.089 383.111 163.004 382.009C164.935 380.897 167.326 379.696 169.053 379.026ZM423.955 402.525C418.779 402.071 442.93 398.26 433.743 401.028C433.318 401.142 424.331 402.505 423.955 402.525ZM241.283 437.786C237.473 439.484 234.926 440.1 223.617 441.903C240.216 438.597 224.656 440.591 241.283 437.786ZM647.353 160.557C647.399 160.594 647.437 160.621 647.432 160.657C647.381 160.624 647.358 160.591 647.353 160.557ZM93.4773 283.876C88.5963 283.793 74.6506 285.42 78.8949 285.772C79.357 285.843 91.663 284.783 93.4773 283.876ZM355.211 309.988C354.584 310.062 354.844 309.865 355.771 309.43C355.853 309.517 355.642 309.705 355.211 309.988ZM163.534 270.993C163.267 271.685 182.735 268.058 183.582 267.799C194.495 264.505 171.637 269.393 163.534 270.993ZM416.437 73.1476C417.404 72.7853 410.618 73.2035 406.986 74.9628C404.155 76.3316 412.845 74.5005 416.437 73.1476ZM278.974 430.128C285.102 428.933 293.802 427.222 295.506 427.653C291.366 428.352 278.975 430.692 278.974 430.128ZM414.36 403.343C407.308 405.62 390.804 408.867 380.205 410.817C379.801 409.707 407.627 404.93 414.36 403.343ZM315.079 325.831C315.597 325.691 330.407 320.607 328.124 320.617C324.788 320.628 310.786 326.96 315.079 325.831ZM387.09 81.2419C380.554 83.8024 396.452 80.6639 403.149 77.2844C406.584 75.552 388.197 80.8087 387.09 81.2419ZM46.7174 285.681C42.2786 285.518 44.0161 285.909 47.7391 286.33C53.9718 287.17 65.8524 286.763 67.7696 286.068C63.4999 286.394 52.5006 286.133 47.7782 285.727C47.3773 285.705 47.0255 285.69 46.7174 285.681ZM364.072 226.633C335.051 230.805 351.525 231.463 356.494 229.954C357.182 229.743 364.786 226.527 364.072 226.633ZM220.733 34.2866C224.409 32.3255 209.745 37.4348 208.221 38.9642C207.28 39.9067 218.384 35.5315 220.733 34.2866ZM543.188 157.375C544.375 157.007 545.535 156.645 546.669 156.293C545.828 156.589 544.705 156.944 543.188 157.375ZM77.657 185.37C61.9186 189.45 58.9801 192.057 58.109 193.032C57.7256 193.465 57.6214 193.74 57.1136 193.996C53.237 195.917 43.7037 200.016 36.2543 205.38C43.3984 200.085 50.456 195.77 57.5094 191.844C58.7027 191.179 59.924 190.511 61.1665 189.845C60.4355 190.172 59.1164 190.775 57.3856 191.598C52.6095 193.895 44.6533 197.808 35.6635 203.736C31.1815 206.714 26.4295 210.183 21.5953 214.657C16.7239 219.712 11.9478 222.755 6.30421 236.437C1.11542 250.916 6.6589 265.221 13.0349 272.44C15.8576 276 21.1057 279.852 24.3382 281.337C27.7269 283 29.8608 283.589 31.5452 284.071C34.8136 284.94 36.4549 285.141 37.8404 285.354C40.4865 285.718 41.6024 285.76 41.8428 285.728C42.4675 285.571 41.2979 285.36 38.4841 284.89C37.0006 284.619 35.2187 284.379 31.7891 283.452C30.0353 282.943 27.7577 282.294 24.3571 280.579C21.0538 279.016 16.0971 275.197 13.564 271.994C4.98769 262.841 3.04365 245.551 6.91035 236.648C8.32128 232.749 9.19156 231.418 9.33134 231.106C10.5247 228.807 15.7994 224.838 17.6796 222.857C20.1623 218.448 41.9105 201.014 58.4614 193.73C67.2341 189.387 74.9662 186.301 77.657 185.37ZM304.534 240.363C309.183 239.595 310.661 240.131 312.749 239.461C313.46 239.232 313.403 238.421 315.836 237.667C312.067 238.568 308.309 239.465 304.534 240.363ZM112.434 169.03C118.431 167.914 93.0397 176.623 92.1737 176.943C87.5648 177.931 107.645 169.79 112.434 169.03ZM153.637 272.18C152.66 272.334 132.643 275.742 132.945 276.216C138.363 275.712 164.885 270.761 153.637 272.18ZM318.886 236.932C325.779 235.497 338.949 233.372 337.19 232.524C337.18 232.526 337.17 232.528 337.16 232.531C331.075 234.002 324.977 235.471 318.886 236.932ZM364.905 90.7085C377.926 88.7408 371.298 88.2181 360.105 90.9949C357.02 92.8465 362.776 91.0318 364.905 90.7085ZM405.161 79.8979C408.694 79.1806 444.287 67.9028 438.548 68.5889C436.461 68.8463 416.273 75.9771 415.293 76.2031C413.829 76.5409 420.044 73.4596 409.163 77.0199C409.917 77.1898 403.943 80.1489 405.161 79.8979ZM375.57 88.7363C388.374 86.3533 390.354 82.9166 381.052 85.7546C377.399 86.8671 373.749 89.0719 375.57 88.7363ZM324.978 104.005C329.504 102.882 341.47 99.601 349.377 96.2357C338.417 99.515 327.463 102.797 316.501 106.087C315.385 106.964 321.032 104.981 325.008 103.995C324.998 103.998 324.988 104.001 324.978 104.005ZM488.194 382.853C483.377 383.169 486.53 382.407 490.756 381.706C495.017 380.975 499.722 380.68 500.424 380.747C502.765 381.21 492.608 382.436 488.194 382.853ZM304.44 25.3159C307.185 24.4986 309.304 24.7017 314.905 21.7943C308.783 23.541 302.657 25.2997 296.525 27.0703C292.675 30.5371 301.413 26.2158 304.44 25.3159ZM329.104 21.7812C328.285 22.167 333.825 22.6997 322.499 25.5108C318.997 26.3855 325.186 23.2261 333.597 19.4136C343.676 14.8408 356.976 9.35523 361.094 8.37462C354.832 11.383 342.029 16.2661 333.738 19.7538C331.973 20.4953 330.363 21.1941 329.104 21.7812ZM401.959 4.7539C402.469 4.75934 387.731 10.7538 385.948 11.324C376.621 14.1489 399.115 4.56712 401.959 4.7539ZM354.348 23.1031C361.547 20.708 346.163 27.3547 341.5 28.9719C340.857 28.7056 353.273 23.4573 354.348 23.1031ZM379.879 364.388C371.518 364.224 365.07 369.407 377.263 366.209C377.841 366.058 380.242 364.405 379.879 364.388ZM388.384 12.811C381.222 15.0739 396.543 8.70492 401.244 7.26799C401.841 7.54483 389.465 12.4486 388.384 12.811ZM373.41 361.343C362.505 362.194 367.098 365.668 368.459 365.576C374.073 365.16 392.555 359.794 396.308 358.633C368.292 364.804 378.534 360.949 373.41 361.343ZM324.807 373.606C315.025 376.012 340.424 371.872 345.008 369.74C340.113 370.769 327.586 372.92 324.807 373.606ZM264.654 384.05C259.34 384.934 243.462 387.621 240.962 388.779C246.73 387.561 262.528 385.177 264.654 384.05ZM252.262 384.389C243.83 385.078 242.318 388.095 251.719 385.473C252.086 385.371 252.579 384.38 252.262 384.389ZM205.713 392.057C200.142 391.942 194.472 395.508 203.181 394.115C205.744 393.692 206.304 392.078 205.713 392.057ZM359.179 359.444C351.29 360.541 341.597 364.356 358.293 361.255C352.499 362.692 346.707 364.13 340.914 365.568C362.93 362.264 360.812 360.06 367.11 358.921C375.9 357.337 375.608 359.562 373.988 360.562C380.756 357.921 410.311 352.037 428.087 348.4C428.429 348.33 428.764 348.261 429.094 348.194C428.761 348.246 428.423 348.299 428.078 348.353C412.393 350.79 387.74 354.71 372.714 357.337C368.308 358.105 364.2 359.513 360.473 360.185C354.485 361.261 359.623 359.387 359.21 359.438C359.199 359.44 359.189 359.442 359.179 359.444ZM197.567 424.065C212.843 419.343 202.493 420.574 194.302 424.372C193.983 424.538 197.143 424.201 197.567 424.065ZM411.109 12.5996C390.703 19.2146 404.766 11.9571 363.666 30.8752C380.675 22.2994 364.207 29.4476 367.413 27.4725C369.99 25.8862 380.479 22.1139 374.106 23.6008C382.422 21.2788 416.47 7.95404 418.234 7.61454C418.219 7.61994 418.205 7.62534 418.19 7.63074C419.17 7.38285 417.647 10.54 411.109 12.5996ZM263.274 377.379C257.316 375.317 256.233 380.644 245.245 380.09C232.034 386.528 283.728 372.634 290.731 374.492C233.641 385.331 329.015 370.2 288.292 373.315C321.415 368.558 298.919 370.611 303.861 369.011C309.153 367.3 327.846 364.319 326.676 363.351C326.666 363.353 326.656 363.355 326.645 363.357C315.303 365.689 303.99 368.014 292.646 370.335C304.261 370.632 280.91 374.465 272.652 373.968C269.553 375.101 266.375 376.248 263.274 377.379ZM327.938 367.065C326.811 367.231 302.182 372.47 303.882 372.652C307.236 372.324 342.21 364.994 327.938 367.065ZM436.762 345.154C434.121 345.65 431.018 346.194 427.776 346.777C420.354 348.108 412.526 349.589 409.298 350.902C414.721 349.848 421.988 348.629 427.9 347.423C431.748 346.638 434.967 345.873 436.762 345.154ZM354.153 367.857C364.696 363.136 331.306 375.185 341.264 372.51C341.764 372.373 353.62 368.092 354.153 367.857ZM237.724 382.792C234.496 383.132 232.609 383.532 231.81 383.872C230.992 384.207 231.136 384.493 231.953 384.633C233.265 384.891 236.638 384.703 240.407 383.612C240.89 383.472 238.246 382.738 237.724 382.792ZM395.043 19.1108C394.601 20.0177 365.394 31.1261 360.229 33.2983C362.91 31.3822 395.558 17.8964 395.043 19.1108ZM452.051 339.45C443.988 339.708 434.965 341.341 427.082 343.151C417.102 345.448 409.014 348.019 407.534 348.268C404.876 348.716 408.796 346.745 408.184 346.832C406.805 347.023 378.934 352.602 377.621 352.952C376.667 353.205 382.038 353.841 376.377 355.493C384.004 353.32 410.741 348.126 427.434 344.988C434.926 343.576 440.453 342.561 441.219 342.36C443.292 341.831 427.336 342.999 452.02 339.455C452.031 339.453 452.041 339.452 452.051 339.45ZM400.874 349.2C407.992 348.516 388.455 352.434 383.698 353.113C373.056 354.623 399.99 349.283 400.874 349.2ZM353.834 357.826C351.573 358.114 331.47 361.956 329.916 363.056C339.613 362.159 358.954 357.183 353.834 357.826ZM211.168 424.439C216.047 422.429 229.746 417.863 230.306 416.932C225.402 418.88 211.648 423.513 211.168 424.439ZM298.185 65.2871C306.491 62.3926 287.83 70.5308 282.265 72.6165C281.795 72.319 297.473 65.5291 298.185 65.2871ZM234.582 376.785C234.172 376.835 232.724 377.095 230.608 377.489C224.897 378.55 214.029 380.652 202.592 382.717C196.946 383.736 191.024 384.767 185.891 385.556C180.801 386.374 175.989 386.817 176.266 386.749C175.922 386.74 175.678 386.729 175.708 386.739C175.769 386.761 175.978 386.748 177.36 387.021C178.095 387.187 179.099 387.366 181.247 388.16C183.339 389.232 187.244 389.676 193.834 397.635C196.968 401.568 199.469 408.132 199.663 413.39C199.953 418.714 198.905 422.3 198.112 424.645C196.367 429.321 195.148 430.617 194.382 431.774C193.49 433.038 191.726 434.963 190.658 435.878C189.594 436.82 188.924 437.296 188.406 437.661C187.5 438.282 187.195 438.429 187.027 438.521C186.713 438.68 186.895 438.557 187.009 438.485C186.878 438.521 186.678 438.608 186.965 438.42C187.12 438.313 187.408 438.154 188.296 437.523C188.801 437.156 189.458 436.68 190.51 435.736C191.562 434.824 193.314 432.901 194.194 431.637C194.946 430.487 196.145 429.198 197.865 424.569C198.646 422.248 199.68 418.7 199.394 413.433C199.203 408.232 196.732 401.73 193.625 397.83C187.092 389.938 183.22 389.508 181.145 388.452C179.016 387.674 178.023 387.506 177.296 387.35C175.931 387.097 175.729 387.128 175.674 387.122C175.649 387.129 175.897 387.156 176.243 387.181C176.02 387.378 181.064 387.012 186.262 386.266C191.556 385.541 197.543 384.572 203.307 383.587C214.844 381.612 225.713 379.539 230.802 378.518C232.378 378.2 233.43 377.976 233.738 377.89C234.551 377.659 234.986 376.741 234.582 376.785ZM370.559 349.744C376.122 347.626 380.16 348.051 380.876 347.925C388.063 346.661 402.853 343.532 399.799 345.112C387.091 347.199 359.417 353.971 370.559 349.744ZM217.002 427.033C236.917 418.987 198.042 432.823 203.556 431.864C203.826 431.81 214.941 427.855 217.002 427.033ZM241.519 375.167C246 373.549 309.054 361.865 319.178 359.836C310.412 363.09 302.897 363.426 290.752 365.899C287.483 366.566 288.481 367 288.13 367.071C282.439 368.22 286.558 366.68 283.058 367.358C280.855 367.813 235.107 377.585 241.519 375.167ZM373.716 348.415C377.139 347.141 416.513 339.169 418.199 339.022C430.263 337.815 376.814 347.977 373.716 348.415ZM235.537 374.96C241.897 372.01 273.314 367.08 252.146 372.069C250.106 372.544 241.386 373.463 235.537 374.96ZM215.439 429.401C216.409 429.055 237.544 421.395 237.762 420.741C234.632 421.643 204.024 433.19 215.439 429.401ZM205.421 435.308C205.906 435.108 200.674 436.014 210.378 432.354C211.245 432.037 213.09 432.563 225.278 427.442C227.83 426.372 231.359 424.192 231.104 424.236C217.144 427.35 181.242 445.689 205.421 435.308ZM374.25 347.324C372.018 347.251 376.875 344.767 381.635 344.601C383.68 344.531 380.166 346.137 374.25 347.324ZM282.684 404.691C270.661 410.1 309.531 395.92 311.439 394.977C310.021 394.895 283.862 404.156 282.684 404.691ZM281.991 79.7686C282 79.7645 282.01 79.7605 282.019 79.7564C271.78 83.9081 277.776 80.5262 277.29 80.7076C255.228 88.9624 261.651 88.0877 258.353 89.7243C251.297 93.2572 251.623 90.8386 239.8 96.9452C259.413 86.9993 241.31 95.4742 240.442 95.0515C236.974 93.2542 267.823 84.6739 277.68 79.8058C279.053 79.1214 268.298 82.6822 271.789 80.8883C283.135 75.0377 321.334 63.916 281.991 79.7686ZM385.171 343.77C390.045 341.885 428.802 335.227 418.708 337.934C417.051 338.349 377.949 346.499 385.171 343.77ZM649.465 93.9123C652.401 93.7715 653.8 93.7304 653.464 93.5586C653.177 93.3972 651.284 93.1648 649.016 93.0561C641.768 92.6372 631.198 93.6858 628.386 94.4499C626.219 95.0007 641.729 94.0489 649.02 93.9325C649.175 93.926 649.324 93.9193 649.465 93.9123ZM491.499 126.532C480.912 129.429 470.383 135.372 483.575 131.516C484.959 131.111 492.855 126.642 491.499 126.532ZM151.128 358.339C161.023 354.101 159.485 352.57 152.58 356.425C150.161 357.801 150.824 358.472 151.128 358.339ZM565.305 220.986C566.354 220.748 579.434 216.608 578.742 216.306C573.81 217.52 557.92 222.701 565.305 220.986ZM148.352 360.284C153.675 356.792 143.234 360.914 137.96 366.103C140.933 364.023 147.799 360.633 148.352 360.284ZM211.303 374.684C205.976 376.536 189.849 379.105 182.054 380.224C180.46 379.466 204.688 376.18 211.303 374.684ZM536.877 115.655C527.074 119.232 548.727 113.824 546.455 113.358C546.192 113.377 537.252 115.519 536.877 115.655ZM392.488 258.015C385.423 261.077 408.829 254.238 402.091 255.234C401.745 255.299 392.879 257.846 392.488 258.015ZM494.252 224.791C491.042 225.678 482.302 228.456 476.731 230.391C472.344 231.913 469.854 232.918 474.137 231.822C474.444 231.744 475.489 231.42 476.917 230.963C482.449 229.182 494.029 225.367 494.252 224.791ZM258.077 90.7292C261.394 90.5522 244.692 97.4976 242.243 98.3587C241.274 98.6856 253.738 90.9543 258.077 90.7292ZM214.486 328.757C219.674 326.601 233.982 321.841 236.34 320.414C229.515 322.829 212.238 328.265 214.486 328.757ZM583.993 102.401C583.785 102.427 583.575 102.456 583.361 102.485C573.205 103.895 558.801 108.273 562.928 108.751C579.926 103.842 560.311 107.834 583.374 102.536C583.578 102.491 583.784 102.446 583.993 102.401ZM129.807 375.095C130.558 374.232 130.518 372.085 130.318 372.174C128.245 373.198 128.588 375.767 129.807 375.095ZM445.724 257.151C446.176 257.723 460.976 253.048 458.865 253.216C458.181 253.265 445.347 256.692 445.724 257.151ZM326.267 393.418C333.149 391.54 312.978 399.613 306.742 401.147C303.434 401.259 325.41 393.657 326.267 393.418ZM204.272 315.177C204.651 314.125 182.475 319.961 191.433 318.705C193.678 318.419 204.092 315.585 204.272 315.177ZM422.749 245.768C407.659 252.049 472.882 231.241 455.345 235.506C454.08 235.802 424.024 245.232 422.749 245.768ZM531.096 211.877C528.217 212.585 528.294 208.868 541.608 206.852C543.328 206.59 535.617 209.448 537.06 209.301C537.431 209.3 550.77 205.93 561.526 204.814C566.119 204.27 570.286 203.987 570.847 203.926C572.659 203.715 570.42 202.777 572.305 202.538C572.915 202.476 574.874 202.357 578.627 202.447C580.546 202.509 582.864 202.588 586.466 203.061C590.348 203.97 594.251 203.028 606.805 210.295C611.05 213.033 616.764 217.814 620.959 225.458C625.222 233.02 626.478 242.028 626.022 248.058C624.891 260.352 621.569 264.604 619.692 268.23C615.606 274.829 613.091 277.094 610.912 279.47C609.412 281.065 606.588 283.703 604.614 285.246C596.549 291.403 593.442 292.562 590.559 294.296C587.796 295.826 586.106 296.755 584.759 297.528C582.226 298.982 581.564 299.523 580.917 299.825C577.082 301.599 570.765 303.682 563.539 306.693C550.424 312.165 535.019 318.327 519.342 324.393C491.976 334.969 463.766 345.313 445.592 350.781C470.678 342.267 494.089 332.663 518.744 322.934C517.682 323.674 517.931 323.759 518.975 323.438C524.397 321.794 550.74 309.296 529.946 319.376C533.163 317.98 542.839 314.117 555.813 308.729C562.345 306.005 569.55 302.977 577.467 299.387C581.45 297.568 585.562 295.656 590.301 293.163C592.718 291.877 595.298 290.474 598.605 288.327C600.261 287.243 602.123 285.952 604.266 284.212C606.365 282.533 608.865 280.11 610.132 278.734C612.464 276.135 615.002 273.722 618.937 267.045C620.728 263.423 623.935 258.98 624.707 247.057C624.996 241.16 623.553 232.693 619.456 225.679C615.43 218.604 610.059 214.132 606.006 211.541C598.321 206.851 594.204 206.284 590.893 205.463C587.637 204.795 585.351 204.583 583.337 204.43C579.371 204.162 576.594 204.244 574.045 204.346C569.025 204.58 565.185 205.03 561.612 205.48C543.598 207.973 533.877 211.395 531.128 211.868C531.117 211.871 531.107 211.874 531.096 211.877ZM449.037 136.21C451.168 135.285 448.733 135.647 444.309 136.641C435.925 138.53 420.638 142.598 418.889 143.911C422.324 143.242 437.007 139.488 444.51 137.468C447.117 136.771 448.837 136.292 449.037 136.21ZM607.27 91.9228C610.996 91.1248 613.259 87.7883 634.173 86.4505C634.192 86.4485 634.212 86.4465 634.231 86.4445C640.591 86.1686 633.416 87.4022 634.612 87.4879C634.568 87.3593 656.362 87.2948 638.517 88.5145C614.402 91.447 635.796 86.9783 623.302 88.5878C621.599 88.6423 599.727 94.0277 601.157 94.1318C601.275 94.1256 607.802 92.5213 608.919 92.4354C613.138 92.0584 611.252 93.1353 611.842 93.057C613.588 92.8645 631.985 88.4119 648.997 88.3692C654.808 88.32 662.657 89.2058 668.315 91.2882C669.263 91.6386 665.598 90.4556 661.478 89.8508C657.346 89.2112 653.015 89.03 649 89.1101C627.366 89.5632 598.366 96.8557 596.291 97.1624C594.89 97.369 595.037 95.3341 593.571 95.4767C593.199 95.5164 587.97 96.8742 582.323 98.4946C576.135 100.262 569.8 102.224 568.372 102.528C567.58 102.698 566.96 102.816 566.51 102.896C569.722 102.598 551.382 107.812 551.805 106.983C552.037 106.639 564.599 103.191 565.129 103.094C565.335 103.056 565.517 103.033 565.684 103.005C564.364 103.041 572.816 100.382 582.129 97.7478C592.961 94.6612 604.245 92.0848 598.553 92.6948C612.371 89.1692 596.881 94.6387 607.27 91.9228ZM685.557 175.136C687.261 173.028 689.039 170.676 690.917 167.797C681.152 180.586 673.556 185.366 666.168 190.687C650.42 200.859 641.315 202.72 631.753 206.237C622.345 209.372 613.351 212.123 604.354 214.975C597.988 216.979 605.656 215.887 597.25 218.161C590.502 219.981 582.87 221.108 586.363 219.761C587.297 219.409 600.919 215.985 607.784 213.709C627.974 206.979 622.593 207.492 623.764 207.104C625.104 206.612 638.188 203.094 646.972 199.324C652.557 196.938 658.856 193.916 665.281 189.401C669.918 186.072 674.395 182.752 680.176 177.358C685.074 171.085 696.398 166.955 701.056 137.268C701.118 135.26 701.83 130.511 699.771 122.031C697.957 113.554 690.707 102.854 684.141 98.1412C670.735 88.6196 664.828 89.3138 660.024 88.1456C663.911 88.6595 668.416 89.347 674.811 92.0751C680.965 94.6056 690.034 100.889 695.374 109.818C700.769 118.673 701.654 126.122 702.087 130.098C702.45 134.241 702.329 136.18 702.362 137.357C702.17 143.13 701.659 147.198 699.41 153.658C697.198 159.973 692.44 168.156 685.557 175.136ZM299.5 284.306C300.083 283.417 314.061 279.59 319.054 277.868C318.453 278.78 304.489 282.629 299.5 284.306ZM528.142 11.9566C523.796 13.8567 557.762 7.90735 548.662 8.63744C546.562 8.78686 532.403 11.1399 528.142 11.9566ZM547.51 107.619C543.272 109.255 560.968 104.606 560.619 103.808C560.532 103.549 548.101 107.397 547.51 107.619ZM393.809 277.82C393.003 278.094 381.073 281.368 380.694 281.422C372.494 282.616 411.729 271.721 393.809 277.82ZM371.995 162.824C386.774 157.53 341.555 171.069 355.614 167.728C356.311 167.56 371.285 163.078 371.995 162.824ZM309.363 182.293C312.916 181.154 328.981 176.583 329.098 176.193C329.248 175.573 310.874 180.844 309.363 182.293ZM132.801 378.128C133.022 378.196 133.105 378.343 133.069 378.589C133.026 378.85 132.883 379.169 132.425 380.043C134.014 376.918 137.002 371.609 136.96 361.146C137.186 350.645 130.34 337.582 123.167 332.106C117.18 327.203 113.763 326.154 111.51 325.21C109.25 324.374 107.964 324.081 106.992 323.856C105.148 323.461 104.587 323.45 104.278 323.42C103.761 323.399 104.432 323.485 105.174 323.515C106.757 323.592 108.945 323.572 110.425 323.489C110.963 323.882 109.169 324.129 106.887 324.196C105.789 324.231 104.502 324.2 104.105 324.152C103.959 324.141 103.961 324.085 105.211 324.263C105.889 324.377 106.835 324.505 108.959 325.121C111.137 326.01 114.258 326.006 122.698 332.658C129.407 337.82 136.19 349.948 136.239 360.453C136.503 370.878 133.49 376.507 131.854 379.729C132.43 378.731 132.654 378.406 132.801 378.128ZM232.323 329.3C204.505 339.366 190.671 345.957 183.842 348.976C178.558 351.345 178.728 350.984 183.577 348.425C191.09 344.438 208.139 336.423 237.135 326.979C237.499 327.705 237.61 327.384 232.323 329.3ZM137.515 374.595C137.862 373.891 138.945 372.895 140.633 371.742C143.527 369.786 147.438 367.521 150.547 365.75C150.096 366.438 144.914 369.518 140.896 372.151C139.339 373.167 138.149 374.048 137.515 374.595ZM487.993 18.1127C493.485 15.9409 519.451 12.093 514.927 13.4173C513.801 13.7005 486.016 19.0622 487.993 18.1127ZM386.667 281.05C389.072 281.604 362.257 289.043 360.156 289.394C351.622 290.797 384.576 281.94 386.667 281.05ZM203.727 309.473C208.016 307.424 221.12 304.469 229.546 302.109C225.943 303.983 210.733 307.75 203.727 309.473ZM146.669 319.724C147.039 319.723 157.259 318.574 157.81 318.477C164.763 318.222 147.496 320.701 145.189 320.266C144.677 320.24 144.608 320.167 145.17 320.033C145.449 319.954 145.928 319.854 146.669 319.724ZM299.657 82.2077C299.295 82.3923 290.584 86.0259 290.266 86.1243C282.154 88.5754 308.292 77.6805 299.657 82.2077Z" fill="#A9CCAC"/>
</svg>
